<mxfile host="app.diagrams.net" agent="Mozilla/5.0 (Windows NT 10.0; Win64; x64; rv:139.0) Gecko/20100101 Firefox/139.0" version="27.1.6">
  <diagram name="Page-1" id="46gfVLRia4m7PnuHblLA">
    <mxGraphModel dx="1153" dy="1342" grid="1" gridSize="10" guides="1" tooltips="1" connect="1" arrows="1" fold="1" page="1" pageScale="1" pageWidth="1169" pageHeight="827" math="0" shadow="0">
      <root>
        <mxCell id="0" />
        <mxCell id="1" parent="0" />
        <mxCell id="ApttCaKkj1XdF3SvVOe8-1" value="OSOBA" style="rounded=1;whiteSpace=wrap;html=1;" parent="1" vertex="1">
          <mxGeometry x="430" y="340" width="120" height="60" as="geometry" />
        </mxCell>
        <mxCell id="ApttCaKkj1XdF3SvVOe8-2" value="REZERVACIJA" style="rounded=1;whiteSpace=wrap;html=1;" parent="1" vertex="1">
          <mxGeometry x="370" y="30" width="120" height="60" as="geometry" />
        </mxCell>
        <mxCell id="ApttCaKkj1XdF3SvVOe8-3" value="&lt;div&gt;RADNIK&lt;/div&gt;" style="rounded=1;whiteSpace=wrap;html=1;" parent="1" vertex="1">
          <mxGeometry x="50" y="460" width="120" height="60" as="geometry" />
        </mxCell>
        <mxCell id="ApttCaKkj1XdF3SvVOe8-4" value="POSJETITELJ" style="rounded=1;whiteSpace=wrap;html=1;" parent="1" vertex="1">
          <mxGeometry x="50" y="210" width="120" height="60" as="geometry" />
        </mxCell>
        <mxCell id="ApttCaKkj1XdF3SvVOe8-5" value="ADMIN" style="rounded=1;whiteSpace=wrap;html=1;" parent="1" vertex="1">
          <mxGeometry x="50" y="330" width="120" height="60" as="geometry" />
        </mxCell>
        <mxCell id="ApttCaKkj1XdF3SvVOe8-6" value="JE" style="rhombus;whiteSpace=wrap;html=1;" parent="1" vertex="1">
          <mxGeometry x="280" y="330" width="80" height="80" as="geometry" />
        </mxCell>
        <mxCell id="ApttCaKkj1XdF3SvVOe8-7" value="" style="endArrow=none;html=1;rounded=0;exitX=1;exitY=0.5;exitDx=0;exitDy=0;entryX=0;entryY=1;entryDx=0;entryDy=0;" parent="1" source="ApttCaKkj1XdF3SvVOe8-3" target="ApttCaKkj1XdF3SvVOe8-6" edge="1">
          <mxGeometry width="50" height="50" relative="1" as="geometry">
            <mxPoint x="550" y="380" as="sourcePoint" />
            <mxPoint x="600" y="330" as="targetPoint" />
          </mxGeometry>
        </mxCell>
        <mxCell id="ApttCaKkj1XdF3SvVOe8-8" value="" style="endArrow=none;html=1;rounded=0;exitX=1;exitY=0.5;exitDx=0;exitDy=0;" parent="1" source="ApttCaKkj1XdF3SvVOe8-5" target="ApttCaKkj1XdF3SvVOe8-6" edge="1">
          <mxGeometry width="50" height="50" relative="1" as="geometry">
            <mxPoint x="180" y="380" as="sourcePoint" />
            <mxPoint x="230" y="330" as="targetPoint" />
          </mxGeometry>
        </mxCell>
        <mxCell id="ApttCaKkj1XdF3SvVOe8-9" value="" style="endArrow=none;html=1;rounded=0;exitX=1;exitY=0.5;exitDx=0;exitDy=0;" parent="1" source="ApttCaKkj1XdF3SvVOe8-4" target="ApttCaKkj1XdF3SvVOe8-6" edge="1">
          <mxGeometry width="50" height="50" relative="1" as="geometry">
            <mxPoint x="550" y="380" as="sourcePoint" />
            <mxPoint x="600" y="330" as="targetPoint" />
          </mxGeometry>
        </mxCell>
        <mxCell id="ApttCaKkj1XdF3SvVOe8-10" value="" style="endArrow=classic;html=1;rounded=0;exitX=1;exitY=0.5;exitDx=0;exitDy=0;entryX=0;entryY=0.5;entryDx=0;entryDy=0;" parent="1" source="ApttCaKkj1XdF3SvVOe8-6" target="ApttCaKkj1XdF3SvVOe8-1" edge="1">
          <mxGeometry width="50" height="50" relative="1" as="geometry">
            <mxPoint x="550" y="380" as="sourcePoint" />
            <mxPoint x="600" y="330" as="targetPoint" />
          </mxGeometry>
        </mxCell>
        <mxCell id="ApttCaKkj1XdF3SvVOe8-11" value="" style="endArrow=none;html=1;rounded=0;entryX=0;entryY=1;entryDx=0;entryDy=0;" parent="1" target="ApttCaKkj1XdF3SvVOe8-12" edge="1">
          <mxGeometry width="50" height="50" relative="1" as="geometry">
            <mxPoint x="170" y="240" as="sourcePoint" />
            <mxPoint x="260" y="200" as="targetPoint" />
          </mxGeometry>
        </mxCell>
        <mxCell id="ApttCaKkj1XdF3SvVOe8-12" value="IMA" style="rhombus;whiteSpace=wrap;html=1;" parent="1" vertex="1">
          <mxGeometry x="170" y="80" width="80" height="80" as="geometry" />
        </mxCell>
        <mxCell id="ApttCaKkj1XdF3SvVOe8-13" value="" style="endArrow=classic;html=1;rounded=0;exitX=1;exitY=0.5;exitDx=0;exitDy=0;entryX=0;entryY=0.75;entryDx=0;entryDy=0;" parent="1" source="ApttCaKkj1XdF3SvVOe8-12" target="ApttCaKkj1XdF3SvVOe8-2" edge="1">
          <mxGeometry width="50" height="50" relative="1" as="geometry">
            <mxPoint x="550" y="380" as="sourcePoint" />
            <mxPoint x="600" y="330" as="targetPoint" />
          </mxGeometry>
        </mxCell>
        <mxCell id="ApttCaKkj1XdF3SvVOe8-14" value="KARTA" style="rounded=1;whiteSpace=wrap;html=1;" parent="1" vertex="1">
          <mxGeometry x="750" y="120" width="120" height="60" as="geometry" />
        </mxCell>
        <mxCell id="ApttCaKkj1XdF3SvVOe8-15" value="PROJEKCIJA" style="rounded=1;whiteSpace=wrap;html=1;" parent="1" vertex="1">
          <mxGeometry x="970" y="290" width="120" height="60" as="geometry" />
        </mxCell>
        <mxCell id="ApttCaKkj1XdF3SvVOe8-16" value="Ime&amp;nbsp;" style="ellipse;whiteSpace=wrap;html=1;" parent="1" vertex="1">
          <mxGeometry x="310" y="210" width="120" height="80" as="geometry" />
        </mxCell>
        <mxCell id="ApttCaKkj1XdF3SvVOe8-18" value="Prezime" style="ellipse;whiteSpace=wrap;html=1;" parent="1" vertex="1">
          <mxGeometry x="440" y="200" width="120" height="80" as="geometry" />
        </mxCell>
        <mxCell id="ApttCaKkj1XdF3SvVOe8-20" value="" style="endArrow=classic;html=1;rounded=0;entryX=0.5;entryY=1;entryDx=0;entryDy=0;exitX=0;exitY=0;exitDx=0;exitDy=0;" parent="1" source="ApttCaKkj1XdF3SvVOe8-1" target="ApttCaKkj1XdF3SvVOe8-16" edge="1">
          <mxGeometry width="50" height="50" relative="1" as="geometry">
            <mxPoint x="360" y="380" as="sourcePoint" />
            <mxPoint x="410" y="330" as="targetPoint" />
          </mxGeometry>
        </mxCell>
        <mxCell id="ApttCaKkj1XdF3SvVOe8-21" value="" style="endArrow=classic;html=1;rounded=0;entryX=0.253;entryY=0.906;entryDx=0;entryDy=0;exitX=0.25;exitY=0;exitDx=0;exitDy=0;entryPerimeter=0;" parent="1" source="ApttCaKkj1XdF3SvVOe8-1" target="ApttCaKkj1XdF3SvVOe8-18" edge="1">
          <mxGeometry width="50" height="50" relative="1" as="geometry">
            <mxPoint x="360" y="380" as="sourcePoint" />
            <mxPoint x="410" y="330" as="targetPoint" />
          </mxGeometry>
        </mxCell>
        <mxCell id="ApttCaKkj1XdF3SvVOe8-22" value="Lozinka" style="ellipse;whiteSpace=wrap;html=1;" parent="1" vertex="1">
          <mxGeometry x="600" y="320" width="120" height="80" as="geometry" />
        </mxCell>
        <mxCell id="ApttCaKkj1XdF3SvVOe8-23" value="Email" style="ellipse;whiteSpace=wrap;html=1;" parent="1" vertex="1">
          <mxGeometry x="570" y="230" width="120" height="80" as="geometry" />
        </mxCell>
        <mxCell id="ApttCaKkj1XdF3SvVOe8-24" value="Telefon" style="ellipse;whiteSpace=wrap;html=1;" parent="1" vertex="1">
          <mxGeometry x="540" y="430" width="120" height="80" as="geometry" />
        </mxCell>
        <mxCell id="ApttCaKkj1XdF3SvVOe8-25" value="" style="endArrow=classic;html=1;rounded=0;entryX=0;entryY=1;entryDx=0;entryDy=0;exitX=0.75;exitY=0;exitDx=0;exitDy=0;" parent="1" source="ApttCaKkj1XdF3SvVOe8-1" target="ApttCaKkj1XdF3SvVOe8-23" edge="1">
          <mxGeometry width="50" height="50" relative="1" as="geometry">
            <mxPoint x="660" y="350" as="sourcePoint" />
            <mxPoint x="710" y="300" as="targetPoint" />
          </mxGeometry>
        </mxCell>
        <mxCell id="ApttCaKkj1XdF3SvVOe8-26" value="" style="endArrow=classic;html=1;rounded=0;entryX=0;entryY=0.5;entryDx=0;entryDy=0;exitX=1;exitY=0.5;exitDx=0;exitDy=0;" parent="1" source="ApttCaKkj1XdF3SvVOe8-1" target="ApttCaKkj1XdF3SvVOe8-22" edge="1">
          <mxGeometry width="50" height="50" relative="1" as="geometry">
            <mxPoint x="660" y="350" as="sourcePoint" />
            <mxPoint x="710" y="300" as="targetPoint" />
          </mxGeometry>
        </mxCell>
        <mxCell id="ApttCaKkj1XdF3SvVOe8-27" value="" style="endArrow=classic;html=1;rounded=0;exitX=0.994;exitY=0.892;exitDx=0;exitDy=0;exitPerimeter=0;entryX=0.335;entryY=0.035;entryDx=0;entryDy=0;entryPerimeter=0;" parent="1" source="ApttCaKkj1XdF3SvVOe8-1" target="ApttCaKkj1XdF3SvVOe8-24" edge="1">
          <mxGeometry width="50" height="50" relative="1" as="geometry">
            <mxPoint x="660" y="350" as="sourcePoint" />
            <mxPoint x="710" y="300" as="targetPoint" />
          </mxGeometry>
        </mxCell>
        <mxCell id="ApttCaKkj1XdF3SvVOe8-28" value="Datum" style="ellipse;whiteSpace=wrap;html=1;" parent="1" vertex="1">
          <mxGeometry x="450" y="-90" width="120" height="80" as="geometry" />
        </mxCell>
        <mxCell id="ApttCaKkj1XdF3SvVOe8-29" value="Status" style="ellipse;whiteSpace=wrap;html=1;" parent="1" vertex="1">
          <mxGeometry x="280" y="-80" width="120" height="80" as="geometry" />
        </mxCell>
        <mxCell id="ApttCaKkj1XdF3SvVOe8-30" value="Vrijeme" style="ellipse;whiteSpace=wrap;html=1;" parent="1" vertex="1">
          <mxGeometry x="530" width="120" height="80" as="geometry" />
        </mxCell>
        <mxCell id="ApttCaKkj1XdF3SvVOe8-31" value="" style="endArrow=classic;html=1;rounded=0;entryX=-0.003;entryY=0.643;entryDx=0;entryDy=0;entryPerimeter=0;exitX=1;exitY=0.75;exitDx=0;exitDy=0;" parent="1" source="ApttCaKkj1XdF3SvVOe8-2" target="ApttCaKkj1XdF3SvVOe8-30" edge="1">
          <mxGeometry width="50" height="50" relative="1" as="geometry">
            <mxPoint x="620" y="260" as="sourcePoint" />
            <mxPoint x="670" y="210" as="targetPoint" />
          </mxGeometry>
        </mxCell>
        <mxCell id="ApttCaKkj1XdF3SvVOe8-32" value="" style="endArrow=classic;html=1;rounded=0;entryX=0;entryY=1;entryDx=0;entryDy=0;exitX=0.75;exitY=0;exitDx=0;exitDy=0;" parent="1" source="ApttCaKkj1XdF3SvVOe8-2" target="ApttCaKkj1XdF3SvVOe8-28" edge="1">
          <mxGeometry width="50" height="50" relative="1" as="geometry">
            <mxPoint x="620" y="260" as="sourcePoint" />
            <mxPoint x="670" y="210" as="targetPoint" />
          </mxGeometry>
        </mxCell>
        <mxCell id="ApttCaKkj1XdF3SvVOe8-33" value="" style="endArrow=classic;html=1;rounded=0;entryX=0.665;entryY=0.985;entryDx=0;entryDy=0;entryPerimeter=0;exitX=0.25;exitY=0;exitDx=0;exitDy=0;" parent="1" source="ApttCaKkj1XdF3SvVOe8-2" target="ApttCaKkj1XdF3SvVOe8-29" edge="1">
          <mxGeometry width="50" height="50" relative="1" as="geometry">
            <mxPoint x="620" y="260" as="sourcePoint" />
            <mxPoint x="670" y="210" as="targetPoint" />
          </mxGeometry>
        </mxCell>
        <mxCell id="ApttCaKkj1XdF3SvVOe8-34" value="Cijena" style="ellipse;whiteSpace=wrap;html=1;" parent="1" vertex="1">
          <mxGeometry x="740" y="-60" width="120" height="80" as="geometry" />
        </mxCell>
        <mxCell id="ApttCaKkj1XdF3SvVOe8-35" value="" style="endArrow=classic;html=1;rounded=0;entryX=0.5;entryY=1;entryDx=0;entryDy=0;exitX=0.423;exitY=0.039;exitDx=0;exitDy=0;exitPerimeter=0;" parent="1" source="ApttCaKkj1XdF3SvVOe8-14" target="ApttCaKkj1XdF3SvVOe8-34" edge="1">
          <mxGeometry width="50" height="50" relative="1" as="geometry">
            <mxPoint x="870" y="240" as="sourcePoint" />
            <mxPoint x="920" y="190" as="targetPoint" />
          </mxGeometry>
        </mxCell>
        <mxCell id="ApttCaKkj1XdF3SvVOe8-36" value="" style="endArrow=none;html=1;rounded=0;exitX=1;exitY=1;exitDx=0;exitDy=0;" parent="1" source="ApttCaKkj1XdF3SvVOe8-2" target="ApttCaKkj1XdF3SvVOe8-37" edge="1">
          <mxGeometry width="50" height="50" relative="1" as="geometry">
            <mxPoint x="770" y="230" as="sourcePoint" />
            <mxPoint x="570" y="120" as="targetPoint" />
          </mxGeometry>
        </mxCell>
        <mxCell id="ApttCaKkj1XdF3SvVOe8-37" value="PRIPADA" style="rhombus;whiteSpace=wrap;html=1;" parent="1" vertex="1">
          <mxGeometry x="580" y="110" width="80" height="80" as="geometry" />
        </mxCell>
        <mxCell id="ApttCaKkj1XdF3SvVOe8-38" value="" style="endArrow=classic;html=1;rounded=0;exitX=1;exitY=0.5;exitDx=0;exitDy=0;entryX=0;entryY=0.5;entryDx=0;entryDy=0;" parent="1" source="ApttCaKkj1XdF3SvVOe8-37" target="ApttCaKkj1XdF3SvVOe8-14" edge="1">
          <mxGeometry width="50" height="50" relative="1" as="geometry">
            <mxPoint x="770" y="230" as="sourcePoint" />
            <mxPoint x="820" y="180" as="targetPoint" />
          </mxGeometry>
        </mxCell>
        <mxCell id="ApttCaKkj1XdF3SvVOe8-39" value="Datum" style="ellipse;whiteSpace=wrap;html=1;" parent="1" vertex="1">
          <mxGeometry x="910" y="150" width="120" height="80" as="geometry" />
        </mxCell>
        <mxCell id="ApttCaKkj1XdF3SvVOe8-40" value="Vrijeme" style="ellipse;whiteSpace=wrap;html=1;" parent="1" vertex="1">
          <mxGeometry x="1060" y="150" width="120" height="80" as="geometry" />
        </mxCell>
        <mxCell id="ApttCaKkj1XdF3SvVOe8-41" value="" style="endArrow=classic;html=1;rounded=0;entryX=0.5;entryY=1;entryDx=0;entryDy=0;exitX=0.325;exitY=-0.04;exitDx=0;exitDy=0;exitPerimeter=0;" parent="1" source="ApttCaKkj1XdF3SvVOe8-15" target="ApttCaKkj1XdF3SvVOe8-39" edge="1">
          <mxGeometry width="50" height="50" relative="1" as="geometry">
            <mxPoint x="810" y="260" as="sourcePoint" />
            <mxPoint x="860" y="210" as="targetPoint" />
          </mxGeometry>
        </mxCell>
        <mxCell id="ApttCaKkj1XdF3SvVOe8-42" value="" style="endArrow=classic;html=1;rounded=0;entryX=0.5;entryY=1;entryDx=0;entryDy=0;exitX=0.75;exitY=0;exitDx=0;exitDy=0;" parent="1" source="ApttCaKkj1XdF3SvVOe8-15" target="ApttCaKkj1XdF3SvVOe8-40" edge="1">
          <mxGeometry width="50" height="50" relative="1" as="geometry">
            <mxPoint x="810" y="260" as="sourcePoint" />
            <mxPoint x="860" y="210" as="targetPoint" />
          </mxGeometry>
        </mxCell>
        <mxCell id="ApttCaKkj1XdF3SvVOe8-43" value="JE ZA" style="rhombus;whiteSpace=wrap;html=1;" parent="1" vertex="1">
          <mxGeometry x="810" y="250" width="80" height="80" as="geometry" />
        </mxCell>
        <mxCell id="ApttCaKkj1XdF3SvVOe8-45" value="" style="endArrow=none;html=1;rounded=0;entryX=0.5;entryY=1;entryDx=0;entryDy=0;exitX=0;exitY=0;exitDx=0;exitDy=0;" parent="1" source="ApttCaKkj1XdF3SvVOe8-43" target="ApttCaKkj1XdF3SvVOe8-14" edge="1">
          <mxGeometry width="50" height="50" relative="1" as="geometry">
            <mxPoint x="900" y="370" as="sourcePoint" />
            <mxPoint x="950" y="320" as="targetPoint" />
          </mxGeometry>
        </mxCell>
        <mxCell id="ApttCaKkj1XdF3SvVOe8-46" value="" style="endArrow=classic;html=1;rounded=0;exitX=1;exitY=1;exitDx=0;exitDy=0;entryX=0.006;entryY=0.398;entryDx=0;entryDy=0;entryPerimeter=0;" parent="1" source="ApttCaKkj1XdF3SvVOe8-43" target="ApttCaKkj1XdF3SvVOe8-15" edge="1">
          <mxGeometry width="50" height="50" relative="1" as="geometry">
            <mxPoint x="900" y="370" as="sourcePoint" />
            <mxPoint x="950" y="320" as="targetPoint" />
          </mxGeometry>
        </mxCell>
        <mxCell id="ApttCaKkj1XdF3SvVOe8-48" value="SJEDALO" style="rounded=1;whiteSpace=wrap;html=1;" parent="1" vertex="1">
          <mxGeometry x="840" y="400" width="120" height="60" as="geometry" />
        </mxCell>
        <mxCell id="ApttCaKkj1XdF3SvVOe8-49" value="" style="endArrow=classic;html=1;rounded=0;exitX=0.658;exitY=0.816;exitDx=0;exitDy=0;exitPerimeter=0;entryX=0.393;entryY=0.004;entryDx=0;entryDy=0;entryPerimeter=0;" parent="1" source="ApttCaKkj1XdF3SvVOe8-43" target="ApttCaKkj1XdF3SvVOe8-48" edge="1">
          <mxGeometry width="50" height="50" relative="1" as="geometry">
            <mxPoint x="900" y="370" as="sourcePoint" />
            <mxPoint x="950" y="320" as="targetPoint" />
          </mxGeometry>
        </mxCell>
        <mxCell id="ApttCaKkj1XdF3SvVOe8-50" value="Broj" style="ellipse;whiteSpace=wrap;html=1;" parent="1" vertex="1">
          <mxGeometry x="900" y="494" width="120" height="80" as="geometry" />
        </mxCell>
        <mxCell id="ApttCaKkj1XdF3SvVOe8-51" value="Red" style="ellipse;whiteSpace=wrap;html=1;" parent="1" vertex="1">
          <mxGeometry x="750" y="494" width="120" height="80" as="geometry" />
        </mxCell>
        <mxCell id="ApttCaKkj1XdF3SvVOe8-52" value="" style="endArrow=classic;html=1;rounded=0;exitX=0.06;exitY=0.963;exitDx=0;exitDy=0;exitPerimeter=0;" parent="1" source="ApttCaKkj1XdF3SvVOe8-48" edge="1">
          <mxGeometry width="50" height="50" relative="1" as="geometry">
            <mxPoint x="900" y="370" as="sourcePoint" />
            <mxPoint x="820" y="490" as="targetPoint" />
          </mxGeometry>
        </mxCell>
        <mxCell id="ApttCaKkj1XdF3SvVOe8-53" value="" style="endArrow=classic;html=1;rounded=0;exitX=0.75;exitY=1;exitDx=0;exitDy=0;entryX=0.5;entryY=0;entryDx=0;entryDy=0;" parent="1" source="ApttCaKkj1XdF3SvVOe8-48" target="ApttCaKkj1XdF3SvVOe8-50" edge="1">
          <mxGeometry width="50" height="50" relative="1" as="geometry">
            <mxPoint x="900" y="370" as="sourcePoint" />
            <mxPoint x="950" y="320" as="targetPoint" />
          </mxGeometry>
        </mxCell>
        <mxCell id="ApttCaKkj1XdF3SvVOe8-54" value="DVORANA" style="rounded=1;whiteSpace=wrap;html=1;" parent="1" vertex="1">
          <mxGeometry x="1230" y="460" width="120" height="60" as="geometry" />
        </mxCell>
        <mxCell id="ApttCaKkj1XdF3SvVOe8-56" value="IMA" style="rhombus;whiteSpace=wrap;html=1;" parent="1" vertex="1">
          <mxGeometry x="1051" y="434" width="80" height="80" as="geometry" />
        </mxCell>
        <mxCell id="ApttCaKkj1XdF3SvVOe8-57" value="" style="endArrow=none;html=1;rounded=0;exitX=1;exitY=0.5;exitDx=0;exitDy=0;entryX=0;entryY=0.5;entryDx=0;entryDy=0;" parent="1" source="ApttCaKkj1XdF3SvVOe8-56" target="ApttCaKkj1XdF3SvVOe8-54" edge="1">
          <mxGeometry width="50" height="50" relative="1" as="geometry">
            <mxPoint x="1120.9999999999995" y="574" as="sourcePoint" />
            <mxPoint x="1201" y="584" as="targetPoint" />
          </mxGeometry>
        </mxCell>
        <mxCell id="ApttCaKkj1XdF3SvVOe8-58" value="" style="endArrow=classic;html=1;rounded=0;exitX=0;exitY=0.5;exitDx=0;exitDy=0;entryX=1;entryY=0.5;entryDx=0;entryDy=0;" parent="1" source="ApttCaKkj1XdF3SvVOe8-56" target="ApttCaKkj1XdF3SvVOe8-48" edge="1">
          <mxGeometry width="50" height="50" relative="1" as="geometry">
            <mxPoint x="1050" y="340" as="sourcePoint" />
            <mxPoint x="1100" y="290" as="targetPoint" />
          </mxGeometry>
        </mxCell>
        <mxCell id="ApttCaKkj1XdF3SvVOe8-59" value="Broj sjedala" style="ellipse;whiteSpace=wrap;html=1;" parent="1" vertex="1">
          <mxGeometry x="1220" y="574" width="120" height="80" as="geometry" />
        </mxCell>
        <mxCell id="ApttCaKkj1XdF3SvVOe8-60" value="" style="endArrow=classic;html=1;rounded=0;exitX=0.5;exitY=1;exitDx=0;exitDy=0;entryX=0.572;entryY=0.021;entryDx=0;entryDy=0;entryPerimeter=0;" parent="1" source="ApttCaKkj1XdF3SvVOe8-54" target="ApttCaKkj1XdF3SvVOe8-59" edge="1">
          <mxGeometry width="50" height="50" relative="1" as="geometry">
            <mxPoint x="1191" y="448" as="sourcePoint" />
            <mxPoint x="1240" y="554" as="targetPoint" />
          </mxGeometry>
        </mxCell>
        <mxCell id="ApttCaKkj1XdF3SvVOe8-63" value="FIILM" style="rounded=1;whiteSpace=wrap;html=1;" parent="1" vertex="1">
          <mxGeometry x="1360" y="283" width="120" height="60" as="geometry" />
        </mxCell>
        <mxCell id="ApttCaKkj1XdF3SvVOe8-66" value="Trajanje" style="ellipse;whiteSpace=wrap;html=1;" parent="1" vertex="1">
          <mxGeometry x="1480" y="173" width="120" height="80" as="geometry" />
        </mxCell>
        <mxCell id="ApttCaKkj1XdF3SvVOe8-67" value="Naziv" style="ellipse;whiteSpace=wrap;html=1;" parent="1" vertex="1">
          <mxGeometry x="1340" y="163" width="120" height="80" as="geometry" />
        </mxCell>
        <mxCell id="ApttCaKkj1XdF3SvVOe8-68" value="Opis" style="ellipse;whiteSpace=wrap;html=1;" parent="1" vertex="1">
          <mxGeometry x="1530" y="273" width="120" height="80" as="geometry" />
        </mxCell>
        <mxCell id="ApttCaKkj1XdF3SvVOe8-69" value="GODINA" style="ellipse;whiteSpace=wrap;html=1;" parent="1" vertex="1">
          <mxGeometry x="1530" y="397" width="120" height="80" as="geometry" />
        </mxCell>
        <mxCell id="ApttCaKkj1XdF3SvVOe8-71" value="" style="endArrow=classic;html=1;rounded=0;entryX=0.5;entryY=1;entryDx=0;entryDy=0;exitX=0.25;exitY=0;exitDx=0;exitDy=0;" parent="1" source="ApttCaKkj1XdF3SvVOe8-63" target="ApttCaKkj1XdF3SvVOe8-67" edge="1">
          <mxGeometry width="50" height="50" relative="1" as="geometry">
            <mxPoint x="1310" y="343" as="sourcePoint" />
            <mxPoint x="1350" y="293" as="targetPoint" />
          </mxGeometry>
        </mxCell>
        <mxCell id="ApttCaKkj1XdF3SvVOe8-72" value="" style="endArrow=classic;html=1;rounded=0;exitX=0.942;exitY=0.98;exitDx=0;exitDy=0;exitPerimeter=0;entryX=0;entryY=0;entryDx=0;entryDy=0;" parent="1" edge="1">
          <mxGeometry width="50" height="50" relative="1" as="geometry">
            <mxPoint x="1472.73" y="343.0799999999999" as="sourcePoint" />
            <mxPoint x="1547.2635931288073" y="409.99572875253807" as="targetPoint" />
          </mxGeometry>
        </mxCell>
        <mxCell id="ApttCaKkj1XdF3SvVOe8-73" value="" style="endArrow=classic;html=1;rounded=0;entryX=0.028;entryY=0.386;entryDx=0;entryDy=0;entryPerimeter=0;" parent="1" target="ApttCaKkj1XdF3SvVOe8-68" edge="1">
          <mxGeometry width="50" height="50" relative="1" as="geometry">
            <mxPoint x="1480" y="313" as="sourcePoint" />
            <mxPoint x="1530" y="263" as="targetPoint" />
          </mxGeometry>
        </mxCell>
        <mxCell id="ApttCaKkj1XdF3SvVOe8-74" value="" style="endArrow=classic;html=1;rounded=0;exitX=0.75;exitY=0;exitDx=0;exitDy=0;entryX=0;entryY=1;entryDx=0;entryDy=0;" parent="1" source="ApttCaKkj1XdF3SvVOe8-63" target="ApttCaKkj1XdF3SvVOe8-66" edge="1">
          <mxGeometry width="50" height="50" relative="1" as="geometry">
            <mxPoint x="1300" y="343" as="sourcePoint" />
            <mxPoint x="1350" y="293" as="targetPoint" />
          </mxGeometry>
        </mxCell>
        <mxCell id="ApttCaKkj1XdF3SvVOe8-75" value="" style="endArrow=none;html=1;rounded=0;exitX=1;exitY=0.5;exitDx=0;exitDy=0;" parent="1" source="ApttCaKkj1XdF3SvVOe8-15" target="ApttCaKkj1XdF3SvVOe8-76" edge="1">
          <mxGeometry width="50" height="50" relative="1" as="geometry">
            <mxPoint x="1160" y="310" as="sourcePoint" />
            <mxPoint x="1170" y="320" as="targetPoint" />
          </mxGeometry>
        </mxCell>
        <mxCell id="ApttCaKkj1XdF3SvVOe8-76" value="SADRŽI" style="rhombus;whiteSpace=wrap;html=1;" parent="1" vertex="1">
          <mxGeometry x="1189" y="273" width="80" height="80" as="geometry" />
        </mxCell>
        <mxCell id="ApttCaKkj1XdF3SvVOe8-77" value="" style="endArrow=classic;html=1;rounded=0;entryX=0;entryY=0.5;entryDx=0;entryDy=0;exitX=1;exitY=0.5;exitDx=0;exitDy=0;" parent="1" source="ApttCaKkj1XdF3SvVOe8-76" target="ApttCaKkj1XdF3SvVOe8-63" edge="1">
          <mxGeometry width="50" height="50" relative="1" as="geometry">
            <mxPoint x="1160" y="340" as="sourcePoint" />
            <mxPoint x="1210" y="290" as="targetPoint" />
          </mxGeometry>
        </mxCell>
        <mxCell id="ApttCaKkj1XdF3SvVOe8-78" value="" style="endArrow=none;html=1;rounded=0;exitX=1;exitY=1;exitDx=0;exitDy=0;" parent="1" source="ApttCaKkj1XdF3SvVOe8-15" target="ApttCaKkj1XdF3SvVOe8-79" edge="1">
          <mxGeometry width="50" height="50" relative="1" as="geometry">
            <mxPoint x="1040" y="340" as="sourcePoint" />
            <mxPoint x="1130" y="380" as="targetPoint" />
          </mxGeometry>
        </mxCell>
        <mxCell id="ApttCaKkj1XdF3SvVOe8-79" value="JE U" style="rhombus;whiteSpace=wrap;html=1;" parent="1" vertex="1">
          <mxGeometry x="1110" y="350" width="80" height="80" as="geometry" />
        </mxCell>
        <mxCell id="ApttCaKkj1XdF3SvVOe8-80" value="" style="endArrow=classic;html=1;rounded=0;exitX=1;exitY=0.5;exitDx=0;exitDy=0;entryX=0;entryY=0;entryDx=0;entryDy=0;" parent="1" source="ApttCaKkj1XdF3SvVOe8-79" target="ApttCaKkj1XdF3SvVOe8-54" edge="1">
          <mxGeometry width="50" height="50" relative="1" as="geometry">
            <mxPoint x="1040" y="340" as="sourcePoint" />
            <mxPoint x="1090" y="290" as="targetPoint" />
          </mxGeometry>
        </mxCell>
        <mxCell id="ApttCaKkj1XdF3SvVOe8-81" value="" style="endArrow=none;html=1;rounded=0;exitX=1;exitY=0.25;exitDx=0;exitDy=0;entryX=0;entryY=0.5;entryDx=0;entryDy=0;" parent="1" source="ApttCaKkj1XdF3SvVOe8-48" target="ApttCaKkj1XdF3SvVOe8-79" edge="1">
          <mxGeometry width="50" height="50" relative="1" as="geometry">
            <mxPoint x="1040" y="340" as="sourcePoint" />
            <mxPoint x="1090" y="290" as="targetPoint" />
          </mxGeometry>
        </mxCell>
        <mxCell id="ApttCaKkj1XdF3SvVOe8-82" value="ŽANR" style="rounded=1;whiteSpace=wrap;html=1;" parent="1" vertex="1">
          <mxGeometry x="1450" y="530" width="120" height="60" as="geometry" />
        </mxCell>
        <mxCell id="ApttCaKkj1XdF3SvVOe8-83" value="IMA" style="rhombus;whiteSpace=wrap;html=1;" parent="1" vertex="1">
          <mxGeometry x="1390" y="410" width="80" height="80" as="geometry" />
        </mxCell>
        <mxCell id="ApttCaKkj1XdF3SvVOe8-84" value="" style="endArrow=none;html=1;rounded=0;exitX=0.5;exitY=1;exitDx=0;exitDy=0;entryX=0.5;entryY=0;entryDx=0;entryDy=0;" parent="1" source="ApttCaKkj1XdF3SvVOe8-63" target="ApttCaKkj1XdF3SvVOe8-83" edge="1">
          <mxGeometry width="50" height="50" relative="1" as="geometry">
            <mxPoint x="1540" y="340" as="sourcePoint" />
            <mxPoint x="1590" y="290" as="targetPoint" />
          </mxGeometry>
        </mxCell>
        <mxCell id="ApttCaKkj1XdF3SvVOe8-85" value="" style="endArrow=classic;html=1;rounded=0;exitX=1;exitY=1;exitDx=0;exitDy=0;entryX=0.31;entryY=0.042;entryDx=0;entryDy=0;entryPerimeter=0;" parent="1" source="ApttCaKkj1XdF3SvVOe8-83" target="ApttCaKkj1XdF3SvVOe8-82" edge="1">
          <mxGeometry width="50" height="50" relative="1" as="geometry">
            <mxPoint x="1490" y="490" as="sourcePoint" />
            <mxPoint x="1564.5335931288073" y="556.9157287525381" as="targetPoint" />
          </mxGeometry>
        </mxCell>
        <mxCell id="ApttCaKkj1XdF3SvVOe8-86" value="Naziv" style="ellipse;whiteSpace=wrap;html=1;" parent="1" vertex="1">
          <mxGeometry x="1470" y="630" width="120" height="80" as="geometry" />
        </mxCell>
        <mxCell id="ApttCaKkj1XdF3SvVOe8-87" value="" style="endArrow=classic;html=1;rounded=0;exitX=0.5;exitY=1;exitDx=0;exitDy=0;entryX=0.366;entryY=0.044;entryDx=0;entryDy=0;entryPerimeter=0;" parent="1" source="ApttCaKkj1XdF3SvVOe8-82" target="ApttCaKkj1XdF3SvVOe8-86" edge="1">
          <mxGeometry width="50" height="50" relative="1" as="geometry">
            <mxPoint x="1700" y="570" as="sourcePoint" />
            <mxPoint x="1737" y="633" as="targetPoint" />
          </mxGeometry>
        </mxCell>
      </root>
    </mxGraphModel>
  </diagram>
</mxfile>
